# xmcd
#
# Track frame offsets:
#	150
#	19246
#	38391
#	61424
#	74964
#	97169
#	109812
#	127856
#	144630
#	158799
#	177276
#	202112
#	216904
#
# Disc length: 3184 seconds
#
# Revision: 1
# Processed by: cddbd v1.5.2PL0 Copyright (c) Steve Scherf et al.
# Submitted via: audiograbber 1.83.01
#
DISCID=c50c6e0d
DTITLE=Riverhead Slide - Married to the Blues
DYEAR=2002
DGENRE=Blues
TTITLE0=Married to the Blues
TTITLE1=All Your Love (I need lovin')
TTITLE2=Talk to me Baby/Dust my Broom
TTITLE3=It ain't so bad
TTITLE4=Albatross
TTITLE5=Long Grey Mare
TTITLE6=Shake Your Moneymaker
TTITLE7=So Over You
TTITLE8=She's Tuff
TTITLE9=Route 66
TTITLE10=Red House
TTITLE11=Messing with the Kid
TTITLE12=32-20 Blues
EXTD=
EXTT0=
EXTT1=
EXTT2=
EXTT3=
EXTT4=
EXTT5=
EXTT6=
EXTT7=
EXTT8=
EXTT9=
EXTT10=
EXTT11=
EXTT12=
PLAYORDER=
